# xmcd
#
# Track frame offsets:
# 150
# 17061
# 31898
# 53217
# 72688
# 93188
# 107704
# 119617
# 135063
# 151444
#
# Disc length: 2307 seconds
#
# Revision: 0
# Processed by: cddbd v1.4PL0 Copyright (c) Steve Scherf et al.
# Submitted via: Audion 3.0.0 (http://www.panic.com/audion/)
#
DISCID=7f09010a
DTITLE=Savage Rose - Ild Og Frihed II
DYEAR=1900
DGENRE=
TTITLE0=a
TTITLE1=b
TTITLE2=c
TTITLE3=d
TTITLE4=e
TTITLE5=f
TTITLE6=g
TTITLE7=h
TTITLE8=i
TTITLE9=j
EXTD=
EXTT0=
EXTT1=
EXTT2=
EXTT3=
EXTT4=
EXTT5=
EXTT6=
EXTT7=
EXTT8=
EXTT9=
PLAYORDER=
